<svg width="208" height="36" viewBox="0 0 208 36" fill="none" xmlns="http://www.w3.org/2000/svg">
<g opacity="0.8">
<path d="M33.0807 18.8332C33.7711 18.8332 34.3307 19.3928 34.3307 20.0832V25.0832C34.3307 25.7735 33.7711 26.3332 33.0807 26.3332H28.0807C27.3904 26.3332 26.8307 25.7735 26.8307 25.0832V20.0832C26.8307 19.3928 27.3904 18.8332 28.0807 18.8332H33.0807ZM23.9165 18.8332C24.6069 18.8332 25.1665 19.3928 25.1665 20.0832V25.0832C25.1665 25.7735 24.6069 26.3332 23.9165 26.3332H18.9165C18.2261 26.3332 17.6665 25.7735 17.6665 25.0832V20.0832C17.6665 19.3928 18.2261 18.8332 18.9165 18.8332H23.9165ZM32.914 20.2498H28.2473V24.9165H32.914V20.2498ZM23.7498 20.2498H19.0832V24.9165H23.7498V20.2498ZM23.9165 9.6665C24.6069 9.6665 25.1665 10.2261 25.1665 10.9165V15.9165C25.1665 16.6069 24.6069 17.1665 23.9165 17.1665H18.9165C18.2261 17.1665 17.6665 16.6069 17.6665 15.9165V10.9165C17.6665 10.2261 18.2261 9.6665 18.9165 9.6665H23.9165ZM33.0807 9.6665C33.7711 9.6665 34.3307 10.2261 34.3307 10.9165V15.9165C34.3307 16.6069 33.7711 17.1665 33.0807 17.1665H28.0807C27.3904 17.1665 26.8307 16.6069 26.8307 15.9165V10.9165C26.8307 10.2261 27.3904 9.6665 28.0807 9.6665H33.0807ZM23.7498 11.0832H19.0832V15.7498H23.7498V11.0832ZM32.914 11.0832H28.2473V15.7498H32.914V11.0832Z" fill="white"/>
</g>
<path opacity="0.8" d="M49.1186 23V12.8182H52.7479C53.54 12.8182 54.1963 12.9624 54.7166 13.2507C55.237 13.5391 55.6264 13.9335 55.8849 14.4339C56.1435 14.9311 56.2727 15.4912 56.2727 16.1143C56.2727 16.7408 56.1418 17.3042 55.88 17.8047C55.6214 18.3018 55.2304 18.6963 54.7067 18.9879C54.1863 19.2763 53.5317 19.4205 52.7429 19.4205H50.2472V18.1179H52.6037C53.1042 18.1179 53.5102 18.0317 53.8217 17.8594C54.1333 17.6837 54.362 17.4451 54.5078 17.1435C54.6536 16.8419 54.7266 16.4988 54.7266 16.1143C54.7266 15.7299 54.6536 15.3885 54.5078 15.0902C54.362 14.7919 54.1316 14.5582 53.8168 14.3892C53.5052 14.2202 53.0942 14.1357 52.5838 14.1357H50.6548V23H49.1186ZM57.9544 23V15.3636H59.3912V16.5767H59.4707C59.6099 16.1657 59.8552 15.8426 60.2065 15.6072C60.5611 15.3686 60.9622 15.2493 61.4096 15.2493C61.5024 15.2493 61.6118 15.2526 61.7377 15.2592C61.867 15.2659 61.9681 15.2741 62.041 15.2841V16.706C61.9814 16.6894 61.8753 16.6712 61.7228 16.6513C61.5704 16.6281 61.4179 16.6165 61.2654 16.6165C60.9141 16.6165 60.6009 16.6911 60.3258 16.8402C60.054 16.986 59.8386 17.1899 59.6795 17.4517C59.5204 17.7102 59.4409 18.0052 59.4409 18.3366V23H57.9544ZM66.2706 23.1541C65.5547 23.1541 64.9299 22.9901 64.3963 22.6619C63.8627 22.3338 63.4484 21.8748 63.1534 21.2848C62.8584 20.6948 62.7109 20.0054 62.7109 19.2166C62.7109 18.4245 62.8584 17.7318 63.1534 17.1385C63.4484 16.5452 63.8627 16.0845 64.3963 15.7564C64.9299 15.4283 65.5547 15.2642 66.2706 15.2642C66.9865 15.2642 67.6113 15.4283 68.1449 15.7564C68.6785 16.0845 69.0928 16.5452 69.3878 17.1385C69.6828 17.7318 69.8303 18.4245 69.8303 19.2166C69.8303 20.0054 69.6828 20.6948 69.3878 21.2848C69.0928 21.8748 68.6785 22.3338 68.1449 22.6619C67.6113 22.9901 66.9865 23.1541 66.2706 23.1541ZM66.2756 21.9062C66.7396 21.9062 67.1241 21.7836 67.429 21.5384C67.7339 21.2931 67.9593 20.9666 68.1051 20.5589C68.2543 20.1513 68.3288 19.7022 68.3288 19.2116C68.3288 18.7244 68.2543 18.277 68.1051 17.8693C67.9593 17.4583 67.7339 17.1286 67.429 16.88C67.1241 16.6314 66.7396 16.5071 66.2756 16.5071C65.8082 16.5071 65.4205 16.6314 65.1122 16.88C64.8073 17.1286 64.5803 17.4583 64.4311 17.8693C64.2853 18.277 64.2124 18.7244 64.2124 19.2116C64.2124 19.7022 64.2853 20.1513 64.4311 20.5589C64.5803 20.9666 64.8073 21.2931 65.1122 21.5384C65.4205 21.7836 65.8082 21.9062 66.2756 21.9062ZM74.3482 23.1491C73.7317 23.1491 73.1815 22.9917 72.6976 22.6768C72.217 22.3587 71.8392 21.9062 71.5641 21.3196C71.2923 20.7296 71.1564 20.022 71.1564 19.1967C71.1564 18.3714 71.294 17.6655 71.5691 17.0788C71.8475 16.4922 72.2286 16.0431 72.7125 15.7315C73.1964 15.42 73.745 15.2642 74.3581 15.2642C74.8321 15.2642 75.2132 15.3438 75.5016 15.5028C75.7933 15.6586 76.0186 15.8409 76.1777 16.0497C76.3401 16.2585 76.4661 16.4425 76.5556 16.6016H76.6451V12.8182H78.1316V23H76.6799V21.8118H76.5556C76.4661 21.9742 76.3368 22.1598 76.1678 22.3686C76.0021 22.5774 75.7734 22.7597 75.4817 22.9155C75.19 23.0713 74.8122 23.1491 74.3482 23.1491ZM74.6763 21.8814C75.1039 21.8814 75.4651 21.7687 75.7601 21.5433C76.0584 21.3146 76.2838 20.9981 76.4363 20.5938C76.592 20.1894 76.6699 19.7187 76.6699 19.1818C76.6699 18.6515 76.5937 18.1875 76.4412 17.7898C76.2888 17.392 76.065 17.0821 75.7701 16.8601C75.4751 16.638 75.1105 16.527 74.6763 16.527C74.2289 16.527 73.856 16.643 73.5577 16.875C73.2594 17.107 73.034 17.4235 72.8816 17.8246C72.7324 18.2256 72.6578 18.678 72.6578 19.1818C72.6578 19.6922 72.7341 20.1513 72.8865 20.5589C73.039 20.9666 73.2644 21.2898 73.5627 21.5284C73.8643 21.7637 74.2355 21.8814 74.6763 21.8814ZM85.0906 19.8331V15.3636H86.582V23H85.1204V21.6776H85.0408C84.8652 22.0852 84.5835 22.425 84.1957 22.6967C83.8112 22.9652 83.3323 23.0994 82.7589 23.0994C82.2683 23.0994 81.8342 22.9917 81.4563 22.7763C81.0818 22.5575 80.7868 22.2344 80.5714 21.8068C80.3593 21.3793 80.2532 20.8506 80.2532 20.2209V15.3636H81.7397V20.0419C81.7397 20.5623 81.8839 20.9766 82.1722 21.2848C82.4606 21.593 82.8351 21.7472 83.2958 21.7472C83.5742 21.7472 83.851 21.6776 84.1261 21.5384C84.4045 21.3991 84.6348 21.1887 84.8171 20.907C85.0027 20.6252 85.0939 20.2673 85.0906 19.8331ZM91.796 23.1541C91.0569 23.1541 90.4205 22.9867 89.8869 22.652C89.3566 22.3139 88.9489 21.8482 88.6639 21.255C88.3788 20.6617 88.2363 19.9822 88.2363 19.2166C88.2363 18.4411 88.3822 17.7566 88.6738 17.1634C88.9655 16.5668 89.3765 16.1011 89.9068 15.7663C90.4371 15.4316 91.0618 15.2642 91.7811 15.2642C92.3611 15.2642 92.8781 15.3719 93.3322 15.5874C93.7863 15.7995 94.1525 16.0978 94.4309 16.4822C94.7127 16.8667 94.88 17.3158 94.9331 17.8295H93.4863C93.4068 17.4716 93.2245 17.1634 92.9395 16.9048C92.6577 16.6463 92.2799 16.517 91.8059 16.517C91.3916 16.517 91.0287 16.6264 90.7172 16.8452C90.4089 17.0606 90.1686 17.3688 89.9963 17.7699C89.8239 18.1676 89.7377 18.6383 89.7377 19.1818C89.7377 19.7386 89.8223 20.2192 89.9913 20.6236C90.1603 21.0279 90.399 21.3411 90.7072 21.5632C91.0188 21.7853 91.385 21.8963 91.8059 21.8963C92.0877 21.8963 92.3429 21.8449 92.5716 21.7422C92.8036 21.6361 92.9975 21.4853 93.1532 21.2898C93.3123 21.0942 93.4234 20.8589 93.4863 20.5838H94.9331C94.88 21.0777 94.7193 21.5185 94.4508 21.9062C94.1824 22.294 93.8227 22.599 93.372 22.821C92.9245 23.0431 92.3992 23.1541 91.796 23.1541ZM100.087 15.3636V16.5568H95.9162V15.3636H100.087ZM97.0348 13.5341H98.5213V20.7578C98.5213 21.0462 98.5644 21.2633 98.6506 21.4091C98.7367 21.5516 98.8478 21.6494 98.9837 21.7024C99.1229 21.7521 99.2737 21.777 99.4361 21.777C99.5554 21.777 99.6598 21.7687 99.7493 21.7521C99.8388 21.7356 99.9084 21.7223 99.9581 21.7124L100.227 22.9403C100.14 22.9735 100.018 23.0066 99.8587 23.0398C99.6996 23.0762 99.5007 23.0961 99.2621 23.0994C98.871 23.1061 98.5064 23.0365 98.1683 22.8906C97.8303 22.7448 97.5568 22.5194 97.348 22.2145C97.1392 21.9096 97.0348 21.5268 97.0348 21.0661V13.5341ZM107.331 17.228L105.984 17.4666C105.927 17.2943 105.838 17.1302 105.715 16.9744C105.596 16.8187 105.433 16.6911 105.228 16.5916C105.022 16.4922 104.766 16.4425 104.457 16.4425C104.036 16.4425 103.685 16.5369 103.403 16.7259C103.122 16.9115 102.981 17.1518 102.981 17.4467C102.981 17.7019 103.075 17.9074 103.264 18.0632C103.453 18.219 103.758 18.3466 104.179 18.446L105.392 18.7244C106.095 18.8868 106.618 19.1371 106.963 19.4751C107.308 19.8132 107.48 20.2524 107.48 20.7926C107.48 21.25 107.348 21.6577 107.082 22.0156C106.821 22.3703 106.454 22.6487 105.984 22.8509C105.516 23.053 104.974 23.1541 104.358 23.1541C103.503 23.1541 102.805 22.9718 102.265 22.6072C101.725 22.2393 101.393 21.7173 101.271 21.0412L102.707 20.8224C102.797 21.197 102.981 21.4804 103.259 21.6726C103.538 21.8615 103.901 21.956 104.348 21.956C104.835 21.956 105.225 21.8549 105.516 21.6527C105.808 21.4472 105.954 21.197 105.954 20.902C105.954 20.6634 105.864 20.4628 105.685 20.3004C105.51 20.138 105.24 20.0154 104.875 19.9325L103.582 19.6491C102.87 19.4867 102.343 19.2282 102.001 18.8736C101.663 18.5189 101.494 18.0698 101.494 17.5263C101.494 17.0755 101.62 16.6811 101.872 16.343C102.124 16.005 102.472 15.7415 102.916 15.5526C103.36 15.3603 103.869 15.2642 104.442 15.2642C105.268 15.2642 105.917 15.4432 106.391 15.8011C106.865 16.1558 107.179 16.6314 107.331 17.228Z" fill="white"/>
</svg>
